<?xml version="1.0" standalone="no"?><!DOCTYPE svg PUBLIC "-//W3C//DTD SVG 1.1//EN" "http://www.w3.org/Graphics/SVG/1.1/DTD/svg11.dtd"><svg t="1484627939406" class="icon" style="" viewBox="0 0 1024 1024" version="1.1" xmlns="http://www.w3.org/2000/svg" p-id="1414" xmlns:xlink="http://www.w3.org/1999/xlink" width="200" height="200"><defs><style type="text/css"></style></defs><path d="M230.4 736l550.4 0 0 51.2-550.4 0 0-51.2Z" p-id="1415"></path><path d="M230.4 595.2l550.4 0 0 51.2-550.4 0 0-51.2Z" p-id="1416"></path><path d="M230.4 448l550.4 0 0 51.2-550.4 0 0-51.2Z" p-id="1417"></path><path d="M230.4 300.8l262.4 0 0 51.2-262.4 0 0-51.2Z" p-id="1418"></path><path d="M646.4 0 595.2 0 57.6 0l0 1024 908.8 0L966.4 345.6 966.4 326.4 966.4 307.2 646.4 0zM646.4 70.4 896 307.2l-249.6 0L646.4 70.4zM915.2 979.2 108.8 979.2 108.8 44.8l492.8 0 0 262.4 0 44.8 51.2 0 268.8 0L921.6 979.2z" p-id="1419"></path></svg>